<svg width="68" height="70" viewBox="0 0 68 70" fill="none" xmlns="http://www.w3.org/2000/svg">
<g filter="url(#filter0_d_94_1728)">
<path d="M2 16C2 7.16344 9.16344 0 18 0H50C58.8366 0 66 7.16344 66 16V48C66 56.8366 58.8366 64 50 64H18C9.16344 64 2 56.8366 2 48V16Z" fill="#37A645" shape-rendering="crispEdges"/>
<path d="M44.666 21.3333H23.3327C21.8599 21.3333 20.666 22.5272 20.666 24V40C20.666 41.4727 21.8599 42.6666 23.3327 42.6666H44.666C46.1388 42.6666 47.3327 41.4727 47.3327 40V24C47.3327 22.5272 46.1388 21.3333 44.666 21.3333Z" stroke="white" stroke-width="2.66667" stroke-linecap="round" stroke-linejoin="round"/>
<path d="M47.3327 25.3333L35.3727 32.9333C34.961 33.1912 34.4851 33.328 33.9993 33.328C33.5136 33.328 33.0377 33.1912 32.626 32.9333L20.666 25.3333" stroke="white" stroke-width="2.66667" stroke-linecap="round" stroke-linejoin="round"/>
</g>
<defs>
<filter id="filter0_d_94_1728" x="0" y="0" width="68" height="70" filterUnits="userSpaceOnUse" color-interpolation-filters="sRGB">
<feFlood flood-opacity="0" result="BackgroundImageFix"/>
<feColorMatrix in="SourceAlpha" type="matrix" values="0 0 0 0 0 0 0 0 0 0 0 0 0 0 0 0 0 0 127 0" result="hardAlpha"/>
<feMorphology radius="4" operator="erode" in="SourceAlpha" result="effect1_dropShadow_94_1728"/>
<feOffset dy="4"/>
<feGaussianBlur stdDeviation="3"/>
<feComposite in2="hardAlpha" operator="out"/>
<feColorMatrix type="matrix" values="0 0 0 0 0 0 0 0 0 0 0 0 0 0 0 0 0 0 0.1 0"/>
<feBlend mode="normal" in2="BackgroundImageFix" result="effect1_dropShadow_94_1728"/>
<feBlend mode="normal" in="SourceGraphic" in2="effect1_dropShadow_94_1728" result="shape"/>
</filter>
</defs>
</svg>
